<svg viewBox="0 0 2451.94 1720.43" xmlns="http://www.w3.org/2000/svg"><g fill-rule="evenodd"><path d="m59.81 647.25-2.68 35.93c-1.8 49.01 1.65 100.2 10.93 153.42 98.82 567.89 744.59 799.56 1147.9 832.34 75.65 6.15 166.34 9.06 264.04 5.72l19.79-1.1-61.12 12.95c-57.79 11.05-111.93 19.12-160.05 24.6-384.91 43.82-1034.4-54.34-1232.3-569.52-61.81-160.97-58.82-312.4-8.44-446.34l21.93-48.01z" fill="#404040"/><path d="m119.06 814.36c-95.29-540.51 446.6-857.97 1007.48-809.5 560.91 48.47 1325.4 425.29 1325.4 996.67-35.01 580.01-837.42 636.25-1226.24 605.06-388.82-31.2-1011.39-251.71-1106.64-792.22z" fill="#e72814"/></g></svg>