<svg viewBox="0 0 1740.6 465.22" xmlns="http://www.w3.org/2000/svg"><g fill="#fff"><path d="m241.1 128.4h-27.8v-107h27.8zm96.8-26.4c0 69.8-58.6 79.6-105.6 83.8l-9.6-25.6c54-3.4 87.2-12.2 87.2-56.2v-85.8h28z"/><path d="m454.9 28c-7.2 65.8-24.6 114.6-48.8 154.4l-26.6-13.6c11.4-17.8 38.4-61 47.8-144.6l27.6 3.8zm71.2 150.6c-10.8-59.8-25.6-102.2-46.4-144.8l24.8-11c18.6 35 40.4 88 50.6 148.4zm47.2-151.2c0 15-12.2 27.4-27.4 27.4s-27.4-12.2-27.4-27.4 12.4-27.4 27.4-27.4 27.4 12.2 27.4 27.4zm-41.6 0c0 8 6.4 14.2 14.2 14.2s14.2-6 14.2-14.2-6.6-14.2-14.2-14.2-14.2 6-14.2 14.2z"/><path d="m613.7 119.2c-3-17.2-8.2-33.6-15.8-49.8l21.4-5.8c10 18.8 15.2 40.8 17.2 50zm-1.8 48.8c66.8-14.6 88.8-41.2 101-110.6l26 5.8c-10.8 49.8-27.6 105.2-110.2 125zm46.2-58.4c-2.4-12.6-5.8-30.2-13.8-49.2l21.2-4.4c7.2 14.8 12.6 35.4 14.8 48.6z"/><path d="m838.1 112.4c-21.8-13.2-40.4-19.4-57.6-24.4l9.6-22.2c11.8 2.8 33 8 58.6 22.8zm-46.2 42.4c73.8-7 108.6-30.4 132.8-110.4l22.8 16.8c-27.4 80.8-66.4 111.6-150 122.4zm63.6-90c-21-11.6-37.8-17-59.4-23.4l10-21.6c21.8 4.6 37.8 10.2 60.2 21.2z"/><path d="m1092.1 29.8 29 33.8c-5 25.6-11.4 51.2-33 75.8-16.6 18.8-45.8 38.8-86.8 46l-12.2-25c82.6-14.4 98.2-60.6 104.6-104.4h-118.6v-26.2h117zm14.4-23.8c9.2 10.4 15.4 20.2 23.6 35.6l-13.6 9.6c-7.2-15.2-12.4-23.4-22.6-36.4zm28.4-6c9.4 11.4 14.8 20.6 22.6 36.4l-13.8 9.2c-7-15.8-11.6-23.6-21.6-37.2l12.8-8.4z"/><path d="m1167.7 18.2h170.8v25.2h-72v117.4h80.4v25h-187.6v-25h80.8v-117.4h-72.4z"/><path d="m1406.9 126.2c-10.8 24.2-23.2 47.8-40 68.2l-16.2-23.4c12.6-14.6 21.6-28.8 36.4-59.6zm-42.6-66.6c13.8 4.8 24.6 11.2 35.2 20l-14.8 21.4c-9.2-7.8-19.4-14.2-32.8-20.6zm7.8-52.8c13.8 5.2 22.8 9.8 35 19.4l-15.4 21.8c-10.8-9.4-20.2-15-33.2-21.4zm98 103.2c-6.8 17.8-13.2 34.4-24.4 55.6 17.6-.6 32.4-1 56.2-3.4-7.4-12.8-13.6-22.2-19.2-29.6l21.2-11.4c14 16.6 31.4 45.8 38.4 64.8l-23.2 11.2c-1.4-3.6-2.4-5.8-6.6-15-28.2 4-73 7.4-106.6 8.4l-3.2-23.8c1.6 0 13.6-.2 16-.4 11-21.4 17.4-36.2 23-56.4h-35.6v-23.2h55.6v-30h-47.8v-23.4h47.8v-26.2h25v26.2h48v23.4h-48v30h55.2v23.2z"/><path d="m8 441.02c52.6-8.6 64-27.8 65.4-66.6h-73.4v-24.8h163.8v24.8h-63c-3 51.2-20.2 78.4-82 90.6l-10.8-24zm119-141.2v24.6h-111.2v-24.6zm16.8-15.6c6.2 13.6 9.2 24.8 12.4 41l-15.8 5.2c-2.4-16.6-5.2-26.4-11.2-41.6zm27.8-4.8c6.2 13.4 9 24.4 12.4 41l-15.8 5.2c-2.6-16.8-5.2-26-11.2-41.4z"/><path d="m253.4 389.82c-11.6-7-30-16-58-24l9.6-22.4c14.6 3.4 36.8 10 58.8 22.6zm-46.6 42.6c75.2-6.8 107.6-32.2 130.2-103l23 16.6c-28 77-68.2 104.8-147.2 115.2zm63.8-90.4c-24.6-13-46.2-19.2-59.4-22.8l9.8-21.8c25.4 5 47 14.8 60.4 21zm54.6-61.2c8 12 12 21.4 18.6 38.6l-15.6 7.6c-5.2-15.8-8.4-23.8-17.6-39.2zm32.4-.8c8.4 13.4 12.8 24.2 17.8 39l-15.6 7.2c-5.2-16.6-8.6-24.8-16.8-39.4z"/><path d="m389 360.82c21.2-12.8 40-31 52-59.2h110c-3 31-12.6 132.4-135.6 163.6l-13.6-24.2c31-6.6 60-20.8 82.2-43.2-19.8-15.6-33-24.2-54.2-35-5.4 5.2-11.6 10.8-23.4 18.2zm69.8-34.8c-6.6 10.6-9.8 14.6-13.6 19.6 19.4 8.8 36.2 18 54.6 32.6 11-17.2 16-34 19.2-52.2z"/><path d="m631.2 347.22c0 74.4-20.4 101.4-36.6 117.2l-20.2-20.2c18.6-20 30.4-40.2 30.4-94.8v-48.6h26.4zm53.4 80.2c20-8.8 40.2-17.6 49.2-69.8l25.2 10.8c-8.2 36-26.2 88.2-101 92.2v-165h26.6z"/><path d="m951.6 328.42v25.2h-32v20.2c0 68-52.2 84-95.6 90.2l-10-25c63.4-6.2 78.6-32.6 78.6-65.4v-20h-57.6v49.2h-26.8v-49.2h-30.8v-25.2h30.8v-34.6h26.8v34.6h57.6v-35.2h27v35.2z"/><path d="m1082.4 463.22h-28.4v-84.6c-32.2 20-58.6 29-69.8 32.6l-13.2-23.6c85-26.6 130.6-81.8 142.8-96.8l24 16.6c-7.8 8.6-26.8 30-55.4 51.6z"/><path d="m1240 292.62h26.6v24.6h52.6v22.6c-16.6 18.6-30.8 32.8-52.6 49.4v74.4h-26.6v-57.2c-22.6 12.6-38 19-62.6 27l-12.6-24.2c33.8-8.8 80.6-26 120-67.6l-105.6.6v-25h60.8zm90.2 142.2c-24.2-19.2-43.8-28.8-54.8-34l14.8-20c18 7.6 39 19 54.2 30.2z"/><path d="m1533.8 364.42v27.8h-171.6v-27.8z"/><path d="m1618.6 389.82c-11.6-7-30-16-58-24l9.6-22.4c14.6 3.4 36.8 10 58.8 22.6zm-46.6 42.6c75.2-6.8 107.6-32.2 130.2-103l23 16.6c-28 77-68.2 104.8-147.2 115.2zm63.8-90.4c-24.6-13-46.2-19.2-59.4-22.8l9.8-21.8c25.4 5 47 14.8 60.4 21zm54.6-61.2c8 12 12 21.4 18.6 38.6l-15.6 7.6c-5.2-15.8-8.4-23.8-17.6-39.2zm32.4-.8c8.4 13.4 12.8 24.2 17.8 39l-15.6 7.2c-5.2-16.6-8.6-24.8-16.8-39.4z"/></g></svg>