<svg viewBox="0 0 853.07 329.14" xmlns="http://www.w3.org/2000/svg" xmlns:xlink="http://www.w3.org/1999/xlink"><filter id="a" filterUnits="userSpaceOnUse" height="449.52" width="973.2" x="-60.13" y="-60.14"><feOffset dx="0" dy="0"/><feGaussianBlur result="blur" stdDeviation="20"/><feFlood flood-color="#231815" flood-opacity=".5"/><feComposite in2="blur" operator="in"/><feComposite in="SourceGraphic"/></filter><g filter="url(#a)"><path d="m852.82 139.32c.92-.1 1.28-46.5-36.34-83.72-24.84-24.85-72.46-38.65-138.12-46.34-65.86-7.67-149.75-9.24-251.83-9.26-102.08.02-185.97 1.59-251.82 9.26-65.65 7.69-113.28 21.49-138.12 46.34-37.61 37.22-37.26 83.62-36.34 83.72-.92.11-1.28 46.5 36.34 83.72 24.84 24.85 72.46 38.65 138.12 46.34 27.48 3.2 58.12 5.34 91.9 6.74 17.14 20.96 38.16 53.01 38.16 53.01 3.12-3.33 10.58-43.21 11.85-51.47 36.94.93 66.36.97 109.92.98 102.08-.02 185.97-1.59 251.82-9.26 65.65-7.69 113.28-21.48 138.12-46.34 37.62-37.22 37.26-83.62 36.34-83.72z" fill="#fff"/></g><g fill="#040000"><path d="m151.08 99.13c2.33 0 11.24 0 11.24 9.43 0 3.92-4.77 34.24-28.09 56.39-13.89 13.14-31.69 20.46-36.15 20.46s-6.68-4.24-6.68-7.53c0-3.92 3.6-5.41 6.47-6.57 14.63-5.83 25.44-15.16 30.53-20.78-10.81-8.16-22.05-14.52-27.77-17.7-4.45 4.77-9.75 9.96-13.57 9.96s-7.42-3.6-7.42-7.31c0-2.86 2.12-4.45 4.24-6.25 9.75-8.06 15.37-17.49 17.38-20.88 4.88-8.06 5.51-9.22 15.26-9.22zm-31.37 13.46c-3.18 0-4.24.74-4.98 1.48-.95 1.06-4.98 7.1-5.83 8.48 14.95 7.84 22.15 12.72 27.98 16.85 7.21-11.24 9.75-22.68 9.75-24.38 0-2.44-2.65-2.44-4.24-2.44h-22.69z"/><path d="m196.77 118.95c3.18 0 4.24 1.91 6.36 5.41 6.25 10.39 7.1 12.51 7.1 15.05 0 3.5-4.03 5.62-7 5.62-3.18 0-3.82-1.27-6.36-6.47-.95-1.8-5.3-9.12-6.04-10.6-.53-1.06-1.06-2.23-1.06-3.29 0-3.5 3.82-5.72 7-5.72zm59.36 23.74c-4.88 13.36-14.52 31.8-39.96 42.4-3.92 1.7-5.51 2.01-6.78 2.01-3.39 0-6.15-3.6-6.15-7.21 0-3.07.95-3.5 7.63-6.68 12.72-5.94 30.42-15.16 36.57-47.7 1.17-6.25 1.7-9.12 6.78-9.12 2.44 0 6.89 1.06 6.89 5.94 0 .85-1.48 10.92-4.98 20.35zm-38.16-28.41c2.76 0 4.13 1.17 8.37 9.01 1.8 3.5 4.66 9.01 4.66 12.08 0 3.39-3.92 5.62-7.1 5.62s-3.6-.85-7.31-8.9c-1.7-3.5-2.44-4.98-4.45-8.48-.42-.74-1.17-2.12-1.17-3.6 0-3.39 3.6-5.72 7-5.72z"/><path d="m337.75 126.9h29.68c1.59 0 6.78 0 6.78 6.68s-5.09 6.89-6.78 6.89h-29.89c-.74 11.24-3.6 21.31-12.08 30.85-5.19 5.94-15.16 13.89-20.35 13.89-4.13 0-7.31-3.82-7.31-7.42 0-3.29 1.06-4.03 6.04-7.21 11.34-7.21 18.13-15.79 19.82-30.1h-35.83c-1.59 0-6.78 0-6.78-6.78s5.09-6.78 6.78-6.78h36.04v-12.72c-8.59 1.7-22.37 3.82-26.82 3.82-6.57 0-6.78-6.47-6.78-7.42 0-5.19 2.97-5.51 12.83-6.68 24.17-2.97 34.98-6.57 41.66-9.01 4.45-1.7 5.72-2.12 7.53-2.12 4.35 0 6.89 4.03 6.89 7.21 0 3.6-.85 5.41-21.41 11.02v15.9z"/><path d="m399.97 103.26c.21-7.53.42-11.45 7.53-11.45 7.53 0 7.42 4.77 7.21 11.98l-1.59 44.42c-.32 8.48-.85 22.47 17.07 22.47 11.87 0 22.58-5.62 31.8-27.03 1.38-3.29 2.86-5.72 6.68-5.72 3.5 0 7.84 2.33 7.84 6.47 0 3.71-4.35 12.3-7.31 17.07-5.19 8.37-15.26 23-38.8 23-16.96 0-27.24-7.53-30.63-18.97-.74-2.33-1.59-6.25-1.27-16.75l1.48-45.48z"/><path d="m499.72 117.25c-1.59.21-5.19.53-6.68.53-3.5 0-5.72-2.76-5.72-7.31s2.76-5.94 6.36-6.47c1.7-.21 9.12-.64 10.71-.74l65.19-4.66c2.23-.21 3.82-.21 4.13-.21 6.78 0 6.78 5.62 6.78 7 0 5.83-3.5 6.25-9.96 7-18.66 2.01-40.81 16.43-40.81 34.34 0 13.99 11.77 20.46 25.44 23.64 3.29.74 5.62 2.33 5.62 6.36 0 3.82-2.54 7.42-7.21 7.42-6.15 0-37.95-6.68-37.95-36.25 0-14.52 7.21-26.61 23.32-35.19l-39.22 4.56z"/><path d="m607.94 155.52c-.53.85-1.17 1.91-6.36 10.92-1.8 3.18-3.18 5.51-6.15 5.51-3.6 0-7.1-3.07-7.1-6.89 0-1.91.42-2.44 3.92-7.84 5.3-8.06 10.6-15.9 16.01-23.85l.11-7.63c-2.65.42-8.37 1.38-11.34 1.38-1.48 0-7 0-7-6.89 0-2.65.85-6.36 5.51-6.68 2.12-.21 11.13-.85 13.04-1.06l.11-11.24c.11-6.78 1.7-9.33 6.36-9.33 6.57 0 6.57 4.45 6.57 6.15 0 3.5-.64 19.19-.74 22.37 13.99-14.31 23.85-15.37 30-15.37 27.88 0 27.88 31.06 27.88 39.12 0 5.3-.32 7.1-1.06 12.61 5.72 4.03 8.06 5.72 8.06 9.65s-3.07 7.53-6.15 7.53c-1.8 0-2.33-.42-6.78-4.03-.85 1.06-4.45 5.83-5.3 6.57-5.41 4.66-11.77 6.68-18.13 6.68-11.87 0-21.09-6.78-21.09-18.23 0-9.96 7.84-18.34 21.09-18.34 6.47 0 9.43 1.17 15.26 3.39 0-1.06.32-7.31.32-7.84 0-10.39-2.44-24.06-15.26-24.06-10.92 0-21.41 9.96-29.04 19.5-.11 4.13 0 34.24-.11 40.71 0 2.97-.11 7.63-6.47 7.63s-6.57-4.56-6.47-8.48l.32-21.94zm40.6 2.97c-6.25 0-8.9 3.29-8.9 6.47 0 3.82 3.5 6.68 9.22 6.68 9.12 0 12.08-6.36 13.36-9.12-2.97-1.48-7.63-4.03-13.67-4.03z"/><path d="m751.04 172.05c0 4.88-3.92 8.9-8.9 8.9s-8.9-3.92-8.9-8.9 4.13-9.01 8.9-9.01 8.9 3.92 8.9 9.01zm-16.64-69.43c-.11-3.92-.32-9.65 7.63-9.65s7.95 5.51 7.84 9.65l-1.27 45.69c-.11 2.76-.21 7.31-6.36 7.31s-6.47-4.45-6.57-7.31z"/></g></svg>