<svg viewBox="0 0 820 250" xmlns="http://www.w3.org/2000/svg"><path d="m820 125c0 68.75-56.25 125-125 125h-570c-68.75 0-125-56.25-125-125s56.25-125 125-125h570c68.75 0 125 56.25 125 125z" fill="#fff"/><g fill="#e72814"><path d="m131.99 189.28v-127.42h94.48v21.55h-68.75v28.25h63.97v21.47h-63.97v34.68h71.18v21.47z"/><path d="m245.64 189.28v-127.42h25.03l52.15 85.09v-85.09h23.9v127.42h-25.81l-51.37-83.09v83.09z"/><path d="m397.27 189.28v-105.86h-37.81v-21.55h101.25v21.55h-37.72v105.86h-25.73z"/><path d="m471.97 189.28v-127.42h94.48v21.55h-68.75v28.25h63.97v21.47h-63.97v34.68h71.18v21.47z"/><path d="m585.45 189.28v-127.42h54.15c13.62 0 23.51 1.14 29.68 3.43s11.11 6.36 14.82 12.21 5.56 12.55 5.56 20.08c0 9.56-2.81 17.46-8.43 23.68-5.62 6.23-14.02 10.16-25.21 11.78 5.56 3.25 10.15 6.81 13.78 10.69 3.62 3.88 8.5 10.78 14.65 20.69l15.56 24.86h-30.77l-18.6-27.73c-6.61-9.91-11.12-16.15-13.56-18.73s-5.01-4.35-7.74-5.3c-2.72-.96-7.04-1.43-12.95-1.43h-5.21v53.19zm25.72-73.53h19.03c12.34 0 20.05-.52 23.12-1.56s5.48-2.84 7.21-5.39c1.74-2.55 2.61-5.74 2.61-9.56 0-4.29-1.15-7.75-3.43-10.39-2.29-2.64-5.52-4.3-9.69-5-2.09-.29-8.34-.43-18.77-.43h-20.08z"/></g></svg>