<svg viewBox="0 0 374.92 48.12" xmlns="http://www.w3.org/2000/svg"><path d="m43.82 16.59c-2.8-4.4-8.5-6.2-14.9-5.6 3.5.6 6.3 2.2 7.8 4.9 2.9 5.4-.7 13.2-8.2 18.9 1.6-3 1.8-6.1.4-8.7-2.7-4.8-10.7-5.5-17.8-1.5-5.9 3.3-9.3 8.9-8.7 13.5 0 .3.1.6.2.9 0 .3.1.6.2.8.3.9.7 1.8 1.2 2.6 4.8 7.4 17.6 7.7 28.6.5s16-19 11.2-26.4z" fill="#ce5c16"/><path d="m14.22 14.69c8.6-5.6 18.2-6.8 24.6-3.9l9.3-7.8c-8.3-5.2-21.7-3.6-33 4.6-13 9.4-18.5 24.3-13 34h.1c-4.4-7.9.8-19.7 12-26.9z" fill="#095ca8"/><g fill="#fff"><path d="m301.32 16.29h-13.6c-.7 0-1.3.4-1.5 1.1-.8 3-2.1 5-4.1 6.7 0 0-.1.1-.1.2v4.6s0 .2.1.2h.3c3.4-2 6-5 7.5-8.7h8.3c-1.2 9.1-6.3 15.6-14.1 17.9-.1 0-.2.1-.2.2v4.1s0 .2.1.2h.2c11.6-2.9 18-11.5 18.7-25 0-.9-.7-1.6-1.6-1.6z"/><rect height="4.2" rx=".3" width="17" x="84.82" y="26.79"/><path d="m158.32 26.19c-1.8 0-3.3 1.5-3.3 3.3s1.4 3.3 3.3 3.3 3.3-1.5 3.3-3.3-1.5-3.3-3.3-3.3z"/><path d="m125.92 38.49h-9.9v-18.1h8.6c.1 0 .3-.1.3-.3v-3.5c0-.1-.1-.3-.3-.3h-21.8c-.1 0-.3.1-.3.3v3.5c0 .1.1.3.3.3h8.6v18.1h-9.9c-.1 0-.3.1-.3.3v3.6c0 .1.1.3.3.3h24.4c.1 0 .3-.1.3-.3v-3.6c0-.1-.1-.3-.3-.3z"/><path d="m181.02 16.29h-17.8c-.1 0-.3.1-.3.3v3.5c0 .1.1.3.3.3h14.7v18.2h-14.7c-.1 0-.3.1-.3.3v3.5c0 .1.1.3.3.3h17.8c.9 0 1.6-.7 1.6-1.6v-23.1c0-.9-.7-1.6-1.6-1.6z"/><path d="m347.22 21.59h-15.2c-.1 0-.3.1-.3.3v3.3c0 .1.1.3.3.3h12.5v4.7h-12.5c-.1 0-.3.1-.3.3v3.2c0 .1.1.3.3.3h12.5v4.8h-12.5c-.1 0-.3.1-.3.3v3.3c0 .1.1.3.3.3h15.2c.9 0 1.6-.7 1.6-1.6v-17.8c0-.9-.7-1.6-1.6-1.6z"/><path d="m83.42 38.49h-14.6c-3.1 0-4.3-1-4.3-3.7v-8.8h17.6c.1 0 .3-.1.3-.3v-3.5c0-.1-.1-.3-.3-.3h-17.6v-5.4c0-.1-.1-.3-.3-.3h-3.9c-.1 0-.3.1-.3.3v19c0 4.9 2.3 7 7.8 7h15.5c.1 0 .3-.1.3-.3v-3.5c0-.1-.1-.3-.3-.3z"/><path d="m81.62 14.59c-1.8 0-3.2 1.5-3.2 3.3s1.5 3.2 3.2 3.2 3.2-1.5 3.2-3.2-1.5-3.3-3.2-3.3zm0 4.6c-.7 0-1.3-.6-1.3-1.3s.6-1.3 1.3-1.3 1.3.6 1.3 1.3-.6 1.3-1.3 1.3z"/><path d="m153.62 37.99c-3.6-2.4-6.1-5.4-7.7-9 2.1-4 3.5-7.7 4-10.9v-.2c0-.9-.7-1.6-1.6-1.6h-18.1c-.1 0-.3.1-.3.3v3.5c0 .1.1.3.3.3h14.4c-2.3 9.8-9.9 15.7-15.7 17.8-.1 0-.2.1-.2.2v3.8s0 .2.1.2h.2c2.6-.8 9.1-3.4 13.9-9.6 2.4 4.4 6 7.9 10.2 9.9h.2s.1-.1.1-.2v-4.2s0-.2-.1-.2z"/><path d="m234.32 37.99c-3.6-2.4-6.1-5.4-7.7-9 2.1-4 3.5-7.7 4-10.9v-.2c0-.9-.7-1.6-1.6-1.6h-18.1c-.1 0-.3.1-.3.3v3.5c0 .1.1.3.3.3h14.4c-2.3 9.8-9.9 15.7-15.7 17.8-.1 0-.2.1-.2.2v3.8s0 .2.1.2h.2c2.6-.8 9.1-3.4 13.9-9.6 2.4 4.4 6 7.9 10.2 9.9h.2s.1-.1.1-.2v-4.2s0-.2-.1-.2z"/><path d="m253.82 27.39c-4.2-1-8.5-2-12.2-2.7v-8.1c0-.1-.1-.3-.3-.3h-4c-.1 0-.3.1-.3.3v25.7c0 .1.1.3.3.3h4c.1 0 .3-.1.3-.3v-13.2c4.3.9 8.2 1.8 12.1 2.8h.2s.1-.1.1-.2v-4c0-.1 0-.2-.2-.2z"/><rect height="4.1" rx=".3" width="19.5" x="257.92" y="16.29"/><path d="m277.22 24.19h-20.3c-.1 0-.3.1-.3.3v3.4c0 .1.1.3.3.3h16.7c-2.2 6.2-6.1 9.2-13.9 10.6-.1 0-.2.1-.2.3v3.8h.2c10.8-1.4 16.8-6.8 19-16.9 0-.4 0-.8-.3-1.1-.3-.4-.8-.6-1.3-.6z"/><path d="m306.72 20.39c3.5.1 8.1.6 11.2.9h1.1v-3.8c0-.1-.1-.2-.2-.3-3-.3-8.1-.8-12.1-.9h-.2c-.1 0 0 .1 0 .2v3.5c0 .1.1.3.2.3z"/><path d="m306.72 28.29c3.5.1 8.1.6 11.2.9h1.1v-3.8c0-.1-.1-.2-.2-.3-3-.3-8.1-.8-12.1-.9h-.2c-.1 0 0 .1 0 .2v3.5c0 .1.1.3.2.3z"/><path d="m328.62 21.59h-3.8c-.1 0-.2 0-.3.2-.9 5.9-3 10-6.6 12.7-2.7 2-6.2 3.2-11.2 3.9-.1 0-.2.1-.2.3v4h.2c3.8-.4 9.3-1.4 13.7-4.7 4.5-3.4 7.4-8.8 8.3-16v-.3c0-.1-.1 0-.2 0z"/><path d="m353.02 20.39c3.5.1 8.1.6 11.2.9h1.1v-3.8c0-.1-.1-.2-.2-.3-3-.3-8.1-.8-12.1-.9h-.2c-.1 0 0 .1 0 .2v3.5c0 .1.1.3.2.3z"/><path d="m374.82 21.59h-3.8c-.1 0-.2 0-.3.2-.9 5.9-3 10-6.6 12.7-2.7 2-6.2 3.2-11.2 3.9-.1 0-.2.1-.2.3v4h.2c3.8-.4 9.3-1.4 13.7-4.7 4.5-3.4 7.4-8.8 8.3-16v-.3c0-.1-.1 0-.2 0z"/><path d="m186.12 20.39c3.5.1 8.1.6 11.2.9h1.1v-3.8c0-.1-.1-.2-.2-.3-3-.3-8.1-.8-12.1-.9h-.2c-.1 0 0 .1 0 .2v3.5c0 .1.1.3.2.3z"/><path d="m207.92 21.59h-3.8c-.1 0-.2 0-.3.2-.9 5.9-3 10-6.6 12.7-2.7 2-6.2 3.2-11.2 3.9-.1 0-.2.1-.2.3v4h.2c3.8-.4 9.3-1.4 13.7-4.7 4.6-3.4 7.4-8.8 8.3-16v-.3c0-.1-.1 0-.2 0z"/></g></svg>