<svg viewBox="0 0 889.97 417.72" xmlns="http://www.w3.org/2000/svg"><path d="m315.64 168.82c-11.58 0-21-9.42-21-21s9.42-21 21-21h133.83c11.58 0 21 9.42 21 21s-9.42 21-21 21z" fill="#fff"/><path d="m449.46 128.32c10.75 0 19.5 8.75 19.5 19.5s-8.75 19.5-19.5 19.5h-133.83c-10.75 0-19.5-8.75-19.5-19.5s8.75-19.5 19.5-19.5zm0-3h-133.83c-12.38 0-22.5 10.12-22.5 22.5s10.12 22.5 22.5 22.5h133.83c12.38 0 22.5-10.12 22.5-22.5s-10.12-22.5-22.5-22.5z" fill="#595a5a"/><path d="m239.36 22.5h114.03" fill="none" stroke="#313434" stroke-miterlimit="10" stroke-width="2"/><circle cx="353.13" cy="22.5" fill="#313434" r="5.26"/><path d="m136.93 44.83v140.37" fill="none" stroke="#313434" stroke-miterlimit="10" stroke-width="2"/><circle cx="136.93" cy="184.94" fill="#313434" r="5.26"/><path d="m22.5 43.5c-11.58 0-21-9.42-21-21s9.42-21 21-21h208.72c11.58 0 21 9.42 21 21s-9.42 21-21 21z" fill="#fff"/><path d="m231.22 3c10.75 0 19.5 8.75 19.5 19.5s-8.75 19.5-19.5 19.5h-208.72c-10.75 0-19.5-8.75-19.5-19.5s8.75-19.5 19.5-19.5zm0-3h-208.72c-12.38 0-22.5 10.12-22.5 22.5s10.12 22.5 22.5 22.5h208.72c12.38 0 22.5-10.12 22.5-22.5s-10.12-22.5-22.5-22.5z" fill="#595a5a"/><g fill="#313434"><path d="m43.13 13.55v2.37h-20.54v-2.37h8.69v-1.97h2.84v1.97h9zm-.75 17.04c0 1.29-.26 2.04-1.17 2.47-.87.42-2.12.45-3.81.45-.07-.54-.28-1.27-.54-1.88h-6.06v1.06h-2.44v-6.32h8.98v4.56c.8.02 1.53.02 1.79 0 .35-.02.45-.09.45-.38v-5.24h-13.3v8.25h-2.73v-10.57h18.85v7.61zm-3.1-13.77v5.17h-12.83v-5.17zm-2.85 1.85h-7.33v1.43h7.33zm-1.57 9.54h-4.06v1.53h4.06z"/><path d="m45.95 12.87h7.03v7.59h-4.44c-.07.71-.12 1.41-.19 2.09h4.63s-.02.71-.05 1.06c-.23 5.69-.49 8.06-1.17 8.91-.52.61-1.03.82-1.79.94-.63.09-1.71.09-2.84.07-.07-.87-.4-1.97-.85-2.75 1.01.09 1.97.09 2.44.09.38.02.59-.02.82-.28.38-.38.61-1.93.8-5.64h-2.23l-.14 1.13-2.44-.38c.33-2.04.61-5.22.75-7.75h4.07v-2.61h-4.39v-2.47zm21.41 16.99h-5.78v3.69h-2.68v-3.69h-5.76v-2.47h5.76v-1.53h-4.65v-9h.92c-.21-1.1-.89-2.75-1.6-3.95l2.23-.8c.78 1.2 1.5 2.8 1.74 3.92l-2.16.82h7.19l-.56-.31c.85-1.27 1.95-3.31 2.51-4.86l2.49 1.22c-.8 1.34-1.69 2.8-2.47 3.95h2.07v9h-5.03v1.53h5.78v2.47zm-10.69-9.47h2.23v-1.43h-2.23zm2.23 3.38v-1.43h-2.23v1.43zm.19-7.21c-.14-1.15-.66-3.01-1.27-4.37l2.3-.66c.66 1.34 1.22 3.1 1.41 4.3zm4.98 2.39h-2.49v1.43h2.49zm0 3.39h-2.49v1.43h2.49z"/><path d="m90.72 30.14v2.66h-14.62v-2.66h6.27v-4.7h-4.54v-2.61h4.54v-3.85h-2.58c-.35 1.22-.82 2.35-1.32 3.24-.56-.35-1.83-.99-2.49-1.27.24-.42.47-.87.71-1.36l-1.34.61c-.14-.71-.49-1.74-.89-2.7v16.05h-2.8v-16.8c-.14 1.97-.52 4.56-1.06 6.23l-2.07-.75c.56-1.55.99-4.18 1.15-6.11l1.97.28v-4.79h2.8v4.44l1.36-.56c.47.92.96 2.04 1.29 2.96.59-1.72 1.01-3.74 1.25-5.73l2.73.38c-.16 1.1-.35 2.21-.59 3.27h1.88v-4.61h2.8v4.61h4.79v2.63h-4.79v3.85h4.3v2.61h-4.3v4.7h5.54z"/><path d="m95.61 25.7c-.23 2.23-.73 4.58-1.41 6.09-.47-.33-1.53-.82-2.12-1.03.66-1.36 1.01-3.48 1.2-5.45l2.33.4zm18.02-12.34v19.62h-2.58v-1.06h-6.44v1.27h-2.47v-3.45l-2.21.75c-.19-1.22-.82-3.15-1.39-4.61l2.09-.68c.61 1.36 1.17 3.08 1.5 4.32v-5.36l-1.86.87c-.09-.45-.26-.96-.45-1.53l-1.36.14v9.87h-2.49v-9.59c-1.2.12-2.33.23-3.34.35l-.4-2.47c.56-.02 1.22-.07 1.9-.12.33-.42.68-.87 1.01-1.34-.68-1.06-1.86-2.33-2.87-3.29l1.32-1.9c.19.16.38.33.56.52.66-1.32 1.34-2.87 1.74-4.09l2.47.89c-.82 1.62-1.81 3.43-2.63 4.72.31.35.61.71.85 1.01.82-1.32 1.6-2.68 2.16-3.83l2.28 1.1c-1.25 1.93-2.82 4.16-4.28 6.02l2.19-.16c-.24-.47-.47-.96-.73-1.39l2.02-.89c.73 1.2 1.46 2.63 1.9 3.85v-9.56h11.49zm-9.02 2.61v5.38h1.95v-5.38zm0 13.44h1.95v-5.52h-1.95zm6.44-13.44h-2.04v5.38h2.04zm0 13.44v-5.52h-2.04v5.52z"/><path d="m123.99 17.57c-.61 1.01-1.36 2.04-2.16 3.03v12.92h-2.7v-9.96c-.7.68-1.39 1.29-2.07 1.81-.26-.61-1.01-2.07-1.48-2.68 2.16-1.48 4.51-3.83 5.92-6.16l2.49 1.03zm-.58-4.89c-1.55 2.19-3.97 4.51-6.2 5.95-.31-.61-.94-1.76-1.39-2.35 1.83-1.15 3.95-3.08 4.96-4.65l2.63 1.06zm13.34.71c-.87 2.54-2.23 4.54-3.97 6.13 1.57.85 3.41 1.5 5.43 1.9-.61.56-1.36 1.65-1.72 2.35-2.23-.56-4.23-1.43-5.92-2.58-1.88 1.17-4.04 2.02-6.37 2.63-.28-.63-.85-1.67-1.34-2.21 2.04-.42 3.97-1.13 5.64-2.07-1.15-1.1-2.14-2.37-2.94-3.81l1.93-.68h-3.24v-2.3h10.32l.45-.09 1.74.73zm-4.79 17.03h5.78v2.44h-14.69v-2.44h6.16v-2.51h-4.79v-2.35h4.79v-2.49h2.75v2.49h4.63v2.35h-4.63zm-3.99-15.37c.66 1.13 1.55 2.14 2.66 3.01 1.01-.85 1.9-1.86 2.56-3.01z"/><path d="m150.22 14.25c2.35-.33 4.75-.87 5.92-1.41l1.93 2.58c-.8.19-1.41.35-1.81.45-1.15.31-2.54.56-3.95.78v3.74h5.92c.52 0 1.62-.09 2.14-.14v3.03c-.63-.05-1.43-.09-2.07-.09h-6.09c-.35 3.95-2.04 7.28-6.02 9.68l-2.98-2.04c3.57-1.64 5.45-4.16 5.9-7.64h-6.46c-.73 0-1.6.05-2.21.09v-3.03c.63.07 1.43.14 2.16.14h6.63v-3.34c-2.26.19-4.72.26-6.3.31l-.73-2.73c1.79.05 5.43 0 8.01-.38z"/><path d="m179.71 21.28c-.19 1.39-.8 5.43-1.15 7.66h1.5c.61 0 1.69-.02 2.3-.09v3.03c-.47-.02-1.62-.07-2.26-.07h-12.36c-.85 0-1.43.02-2.33.07v-3.05c.63.07 1.5.12 2.33.12h7.61c.33-2 .85-5.33.92-6.65h-6.34c-.75 0-1.67.07-2.35.12v-3.1c.61.07 1.69.14 2.33.14h6.02c.49 0 1.46-.09 1.74-.26l2.28 1.1c-.12.31-.19.75-.24.99z"/><path d="m191.56 20.76h12.62c1.1 0 2.14-.09 2.75-.14v3.69c-.56-.02-1.76-.12-2.75-.12h-12.62c-1.34 0-2.91.05-3.78.12v-3.69c.85.07 2.56.14 3.78.14z"/><path d="m228.76 14.8-.87.35 1.5.99c-.23.45-.4 1.13-.52 1.62-.56 2.3-1.57 5.94-3.55 8.55-2.11 2.82-5.24 5.15-9.45 6.51l-2.56-2.82c4.65-1.08 7.31-3.13 9.21-5.52 1.55-1.95 2.44-4.61 2.75-6.63h-10.93c-1.08 0-2.19.05-2.8.09v-3.31c.68.09 2.02.19 2.8.19h10.88c.28 0 .68 0 1.1-.05-.4-.78-.87-1.6-1.32-2.28l1.93-.8c.61.89 1.39 2.26 1.81 3.1zm3.36-.59-1.95.85c-.52-.96-1.25-2.3-1.88-3.17l1.95-.78c.59.85 1.43 2.28 1.88 3.1z"/></g><path d="m317.22 147.92c-.94-.82-2.91-1.86-4.46-2.47l1.43-2.11c1.53.52 3.57 1.46 4.58 2.23zm3.03 3.27c-1.25 2.44-2.73 5.12-4.14 7.4l-2.37-1.88c1.27-1.76 3.05-4.68 4.44-7.4zm-1.57-9.5c-.89-.82-2.84-1.95-4.37-2.58l1.53-2.09c1.5.56 3.5 1.57 4.49 2.4l-1.64 2.28zm16.12 13.77v2.63h-15.16v-2.63h6.16v-4.3h-4.49v-2.63h4.49v-3.85h-5.33v-2.68h6.96c-1.22-1.03-3.03-2.19-4.58-2.96l1.86-2.16c1.9.87 4.37 2.35 5.57 3.5l-1.36 1.62h5.4v2.68h-5.59v3.85h4.75v2.63h-4.75v4.3h6.09z" fill="#595a5a"/><path d="m349.11 138.24c0 4.44.63 13.02 9.28 18.12-.61.49-1.76 1.72-2.26 2.44-4.86-2.94-7.36-7.38-8.65-11.58-1.76 5.26-4.58 9.16-8.67 11.61-.52-.59-1.83-1.74-2.56-2.28 4.89-2.47 7.68-7 8.98-13.18l1.43.26c-.17-.89-.26-1.74-.33-2.54h-5.36v-2.84h8.13z" fill="#595a5a"/><path d="m367.14 138.26 3.31-.54c.07.47.14 1.27.26 1.83.05.33.19 1.1.38 2.16 2-.33 3.78-.61 4.63-.78.75-.14 1.64-.33 2.21-.49l.56 3.08c-.52.05-1.46.19-2.16.28-.96.17-2.75.45-4.7.75.23 1.17.47 2.47.73 3.76 2.11-.35 4.04-.68 5.1-.89.92-.19 1.79-.38 2.4-.56l.63 3.1c-.63.05-1.6.21-2.49.35-1.13.19-3.03.49-5.1.82.38 1.93.7 3.5.85 4.23.17.71.4 1.55.61 2.3l-3.38.61c-.12-.87-.19-1.69-.33-2.37-.12-.68-.42-2.3-.8-4.28-2.4.4-4.61.78-5.62.96-1.01.19-1.81.35-2.35.49l-.66-3.15c.63-.02 1.69-.16 2.44-.26 1.08-.14 3.27-.49 5.64-.87-.24-1.27-.49-2.58-.7-3.78-2.07.33-3.88.63-4.61.75-.75.16-1.36.28-2.16.49l-.63-3.24c.75-.02 1.46-.07 2.19-.17.82-.09 2.63-.35 4.65-.68-.19-.99-.35-1.76-.42-2.14-.14-.68-.31-1.22-.47-1.79z" fill="#595a5a"/><path d="m392.33 143.69c.16.56.38 1.36.63 2.28 2.98-.56 6.27-1.2 7.19-1.41.42-.07.87-.21 1.2-.38l1.88 1.34c-.99 2.07-3.36 5.59-5 7.35l-2.58-1.29c1.2-1.08 2.84-3.08 3.48-4.23-.56.09-2.91.59-5.45 1.1.89 3.24 1.9 6.86 2.26 8.08.14.4.45 1.46.63 1.93l-3.2.8c-.07-.63-.24-1.41-.42-2.07-.35-1.27-1.32-4.93-2.16-8.13-1.97.42-3.69.78-4.39.94l-.73-2.82c.75-.07 1.39-.14 2.16-.28.33-.05 1.17-.19 2.26-.4-.23-.92-.45-1.67-.61-2.19-.16-.61-.4-1.17-.66-1.67l3.15-.75c.09.54.24 1.17.38 1.79z" fill="#595a5a"/><path d="m414.65 149.47-2.87 1.08c-.4-1.27-1.57-4.39-2.14-5.43l2.82-1.01c.59 1.2 1.72 4.04 2.19 5.36zm11.38-3.17c-.61 2.37-1.6 4.82-3.2 6.88-2.18 2.82-5.12 4.79-7.87 5.83l-2.47-2.52c2.58-.68 5.85-2.47 7.8-4.91 1.6-2 2.73-5.12 3.01-8.06l3.29 1.06c-.28.75-.42 1.25-.56 1.72zm-6.19 1.71-2.82.99c-.28-1.15-1.32-3.99-1.9-5.22l2.8-.92c.45 1.01 1.6 4.07 1.93 5.15z" fill="#595a5a"/><path d="m449.81 136.78c1.53 0 2.8 1.27 2.8 2.82s-1.27 2.8-2.8 2.8c-.09 0-.21 0-.31-.02-.07.26-.12.49-.19.71-.54 2.3-1.55 5.95-3.52 8.55-2.11 2.82-5.26 5.15-9.45 6.51l-2.56-2.82c4.65-1.08 7.31-3.13 9.21-5.52 1.55-1.95 2.44-4.61 2.75-6.63h-10.93c-1.08 0-2.21.05-2.8.09v-3.31c.68.09 2.02.19 2.8.19h10.88c.33 0 .85-.02 1.34-.09-.02-.14-.05-.28-.05-.45 0-1.55 1.27-2.82 2.82-2.82zm0 4.16c.73 0 1.34-.61 1.34-1.34s-.61-1.36-1.34-1.36-1.36.61-1.36 1.36.61 1.34 1.36 1.34z" fill="#595a5a"/><path d="m510.59 416.22c-11.58 0-21-9.42-21-21s9.42-21 21-21h109.93c11.58 0 21 9.42 21 21s-9.42 21-21 21z" fill="#fff"/><path d="m620.52 375.72c10.75 0 19.5 8.75 19.5 19.5s-8.75 19.5-19.5 19.5h-109.93c-10.75 0-19.5-8.75-19.5-19.5s8.75-19.5 19.5-19.5zm0-3h-109.93c-12.38 0-22.5 10.12-22.5 22.5s10.12 22.5 22.5 22.5h109.93c12.38 0 22.5-10.12 22.5-22.5s-10.12-22.5-22.5-22.5z" fill="#595a5a"/><path d="m510.75 392.64h15.39c.49 0 1.53-.05 2.14-.14v3.05c-.59-.05-1.48-.07-2.14-.07h-5.66c-.14 2.42-.66 4.39-1.5 6.04-.82 1.64-2.63 3.45-4.72 4.51l-2.75-2c1.67-.63 3.31-1.97 4.25-3.36.96-1.46 1.36-3.22 1.46-5.19h-6.46c-.68 0-1.6.05-2.26.09v-3.08c.71.09 1.53.14 2.26.14zm2.98-5.97h7.68c.8 0 1.74-.07 2.54-.19v3.03c-.8-.05-1.72-.07-2.54-.07h-7.68c-.8 0-1.81.02-2.51.07v-3.03c.75.12 1.71.19 2.51.19zm13.49 1.41-1.88.82c-.49-.96-1.22-2.37-1.86-3.27l1.88-.78c.59.87 1.41 2.35 1.86 3.22zm2.82-1.08-1.88.82c-.49-.99-1.25-2.35-1.88-3.24l1.86-.78c.61.89 1.48 2.37 1.9 3.2z" fill="#595a5a"/><path d="m538.39 385.66 3.31-.54c.07.47.14 1.27.26 1.83.05.33.19 1.1.38 2.16 2-.33 3.78-.61 4.63-.78.75-.14 1.64-.33 2.21-.49l.56 3.08c-.52.05-1.46.19-2.16.28-.96.16-2.75.45-4.7.75.23 1.17.47 2.47.73 3.76 2.11-.35 4.04-.68 5.1-.89.92-.19 1.79-.38 2.4-.56l.63 3.1c-.63.05-1.6.21-2.49.35-1.13.19-3.03.49-5.1.82.38 1.93.7 3.5.85 4.23.17.71.4 1.55.61 2.3l-3.38.61c-.12-.87-.19-1.69-.33-2.37-.12-.68-.42-2.3-.8-4.28-2.4.4-4.61.78-5.62.96-1.01.19-1.81.35-2.35.49l-.66-3.15c.63-.02 1.69-.16 2.44-.26 1.08-.14 3.27-.49 5.64-.87-.24-1.27-.49-2.58-.7-3.78-2.07.33-3.88.63-4.61.75-.75.16-1.36.28-2.16.49l-.63-3.24c.75-.02 1.46-.07 2.19-.17.82-.09 2.63-.35 4.65-.68-.19-.99-.35-1.76-.42-2.14-.14-.68-.31-1.22-.47-1.79z" fill="#595a5a"/><path d="m563.58 391.09c.16.56.38 1.36.63 2.28 2.98-.56 6.27-1.2 7.19-1.41.42-.07.87-.21 1.2-.38l1.88 1.34c-.99 2.07-3.36 5.59-5 7.36l-2.58-1.29c1.2-1.08 2.84-3.08 3.48-4.23-.56.09-2.91.59-5.45 1.1.89 3.24 1.9 6.86 2.26 8.08.14.4.45 1.46.63 1.93l-3.2.8c-.07-.63-.24-1.41-.42-2.07-.35-1.27-1.32-4.93-2.16-8.13-1.97.42-3.69.78-4.39.94l-.73-2.82c.75-.07 1.39-.14 2.16-.28.33-.05 1.17-.19 2.26-.4-.23-.92-.45-1.67-.61-2.19-.16-.61-.4-1.17-.66-1.67l3.15-.75c.09.54.24 1.17.38 1.79z" fill="#595a5a"/><path d="m589.03 398.94c4.02-2.37 7.07-5.97 8.55-9.14l1.83 3.31c-1.79 3.17-4.91 6.42-8.69 8.69-2.37 1.43-5.4 2.75-8.72 3.31l-1.97-3.1c3.67-.52 6.72-1.71 9-3.08zm0-7.59-2.4 2.44c-1.22-1.32-4.16-3.88-5.88-5.08l2.21-2.35c1.65 1.1 4.7 3.55 6.06 4.98z" fill="#595a5a"/><path d="m612.72 388.01h4.77c.73 0 1.53-.09 2.04-.26l2.4 1.48c-.26.45-.56 1.08-.78 1.67-.63 1.9-1.81 4.42-3.48 6.77 1.01.73 1.93 1.41 2.61 1.97l-2.23 2.66c-.63-.59-1.5-1.32-2.47-2.09-2.07 2.18-4.75 4.18-8.41 5.57l-2.73-2.37c4.06-1.25 6.67-3.15 8.62-5.1-1.53-1.13-3.08-2.19-4.28-2.94l2.09-2.14c1.25.71 2.73 1.67 4.21 2.66 1.22-1.69 2.23-3.74 2.58-5.19h-6.72c-1.65 2.19-3.83 4.44-6.2 6.09l-2.54-1.95c4.11-2.56 6.3-5.78 7.47-7.83.38-.56.87-1.64 1.08-2.44l3.41 1.06c-.59.82-1.18 1.88-1.46 2.4z" fill="#595a5a"/><path d="m757.54 416.22c-11.58 0-21-9.42-21-21s9.42-21 21-21h109.93c11.58 0 21 9.42 21 21s-9.42 21-21 21z" fill="#fff"/><path d="m867.47 375.72c10.75 0 19.5 8.75 19.5 19.5s-8.75 19.5-19.5 19.5h-109.93c-10.75 0-19.5-8.75-19.5-19.5s8.75-19.5 19.5-19.5zm0-3h-109.93c-12.38 0-22.5 10.12-22.5 22.5s10.12 22.5 22.5 22.5h109.93c12.38 0 22.5-10.12 22.5-22.5s-10.12-22.5-22.5-22.5z" fill="#595a5a"/><path d="m769.68 401.99c2.35.8 4.96 1.76 6.56 2.44l-2.4 1.86c-1.55-.78-4.18-1.88-6.72-2.77l1.6-1.53h-6.96l2.18 1.53c-1.86 1.1-4.77 2.23-7.1 2.8-.45-.56-1.29-1.39-1.88-1.93 2.28-.49 5-1.5 6.49-2.4h-6.39v-2.3h20.89v2.3zm-5.68-13.65h-8.22v-2.33h8.22v-1.69h2.91v1.69h8.55v2.33h-8.55v.99h5.99v9.45h-14.41v-9.45h5.5v-.99zm6.06 2.63h-8.86v.99h8.86zm0 2.58h-8.86v.99h8.86zm0 2.54h-8.86v1.06h8.86z" fill="#595a5a"/><path d="m787.85 388.97c-.42 3.9-1.71 6.37-7.68 7.66-.24-.66-.94-1.79-1.5-2.35 5.12-.89 5.95-2.54 6.32-5.31h-3.24v2.73h-2.75v-5.26h8.51v-2.12h2.87v2.12h8.72v4.86h-2.89v-2.33h-3.31v3.71c0 .63.14.73.87.73h2.09c.59 0 .71-.24.8-1.72.52.4 1.67.8 2.4.96-.28 2.47-1.03 3.12-2.91 3.12h-2.8c-2.63 0-3.2-.75-3.2-3.08v-3.74h-2.28zm11.44 14.12v2.54h-20.56v-2.54h8.76v-3.5h-6.3v-2.51h16.1v2.51h-6.93v3.5z" fill="#595a5a"/><path d="m804.23 402.34-2.54-1.74c1.57-1.5 3.46-4.09 4.42-6.06l2.66 1.25c-1.08 2.09-3.24 5.17-4.54 6.56zm9.84-14.61v1.88h5.47c.66 0 1.69-.07 2.33-.16v3.08c-.75-.05-1.67-.07-2.3-.07h-5.5v10.93c0 1.36-.78 2.21-2.44 2.21-1.27 0-2.63-.07-3.83-.21l-.28-2.91c1.01.19 2.04.28 2.61.28.61 0 .85-.23.87-.85.02-.87.02-8.32.02-9.42v-.02h-5.97c-.71 0-1.62.02-2.28.09v-3.12c.7.09 1.53.19 2.28.19h5.97v-1.88c0-.61-.12-1.64-.21-2.04h3.48c-.05.33-.21 1.46-.21 2.04zm8.82 12.92-2.77 1.5c-1.01-2.02-2.68-4.86-3.81-6.3l2.56-1.39c1.2 1.5 3.08 4.46 4.02 6.18zm-2.64-16.78c1.5 0 2.7 1.22 2.7 2.73s-1.2 2.73-2.7 2.73-2.73-1.22-2.73-2.73 1.22-2.73 2.73-2.73zm0 4c.71 0 1.27-.56 1.27-1.27s-.56-1.27-1.27-1.27-1.29.56-1.29 1.27.59 1.27 1.29 1.27z" fill="#595a5a"/><path d="m835.98 398.94c4.02-2.37 7.07-5.97 8.55-9.14l1.83 3.31c-1.79 3.17-4.91 6.42-8.69 8.69-2.37 1.43-5.4 2.75-8.72 3.31l-1.97-3.1c3.67-.52 6.72-1.71 9-3.08zm0-7.59-2.4 2.44c-1.22-1.32-4.16-3.88-5.88-5.08l2.21-2.35c1.65 1.1 4.7 3.55 6.06 4.98z" fill="#595a5a"/><path d="m868.01 384.18c1.53 0 2.8 1.27 2.8 2.82s-1.27 2.8-2.8 2.8c-.09 0-.21 0-.31-.02-.07.26-.12.49-.19.71-.54 2.3-1.55 5.95-3.52 8.55-2.11 2.82-5.26 5.15-9.45 6.51l-2.56-2.82c4.65-1.08 7.31-3.12 9.21-5.52 1.55-1.95 2.44-4.61 2.75-6.63h-10.93c-1.08 0-2.21.05-2.8.09v-3.31c.68.09 2.02.19 2.8.19h10.88c.33 0 .85-.02 1.34-.09-.02-.14-.05-.28-.05-.45 0-1.55 1.27-2.82 2.82-2.82zm0 4.16c.73 0 1.34-.61 1.34-1.34s-.61-1.36-1.34-1.36-1.36.61-1.36 1.36.61 1.34 1.36 1.34z" fill="#595a5a"/></svg>