<svg viewBox="0 0 114 45" xmlns="http://www.w3.org/2000/svg"><path d="m22.5 43.5c-11.58 0-21-9.42-21-21s9.42-21 21-21h69c11.58 0 21 9.42 21 21s-9.42 21-21 21z" fill="#fff"/><g fill="#595a5a"><path d="m91.5 3c10.75 0 19.5 8.75 19.5 19.5s-8.75 19.5-19.5 19.5h-69c-10.75 0-19.5-8.75-19.5-19.5s8.75-19.5 19.5-19.5zm0-3h-69c-12.38 0-22.5 10.12-22.5 22.5s10.12 22.5 22.5 22.5h69c12.38 0 22.5-10.12 22.5-22.5s-10.12-22.5-22.5-22.5z"/><path d="m25.67 20.15h-2.47v-4.77h8.86v-.89h-7.26v-2.07h17.32v2.07h-7.33v.89h9.05v4.77h-2.58v-2.91h-6.46v4.89h-2.73v-4.89h-6.39v2.91zm15.07 11.19c1.17 0 1.39-.35 1.55-2.35.56.4 1.62.75 2.33.89-.33 2.82-1.08 3.6-3.64 3.6h-4.93c-3.22 0-4.11-.68-4.11-3.15v-.07h-3.9v1.03h-2.66v-8.53h16.26v7.5h-7.03v.07c0 .87.26 1.01 1.69 1.01zm-14.6-10.98h5.08v1.53h-5.08zm5.08-.82h-4.63v-1.5h4.63zm-3.2 5.1v1.03h3.9v-1.03zm3.9 3.74v-1.01h-3.9v1.01zm6.94-3.74h-4.25v1.03h4.25zm0 3.74v-1.01h-4.25v1.01zm1.41-10.34v1.5h-4.58v-1.5zm-4.59 2.32h5.12v1.53h-5.12z"/><path d="m53.87 12.52c-.61 1.5-1.36 3.05-2.21 4.54v16.43h-2.66v-12.43c-.63.82-1.27 1.55-1.93 2.21-.26-.68-1.01-2.23-1.48-2.91 2.23-2.07 4.39-5.36 5.66-8.69l2.61.87zm14.2 17.41v2.63h-15.18v-2.63h7.71c.92-2.87 1.88-7.21 2.26-10.53l3.05.49c-.68 3.41-1.69 7.28-2.61 10.03h4.77zm-9.19-14.1v-3.92h2.82v3.92h5.87v2.66h-14.22v-2.66h5.52zm-2.49 13.35c-.07-2.28-.66-6.18-1.41-9.19l2.51-.45c.8 2.96 1.5 6.74 1.67 9.05z"/><path d="m79.14 17.69h-9.61v-2.21h9.61zm-1.01 14.61h-5.12v.92h-2.42v-8.01h7.54v7.1zm-7.48-13.56h7.54v2.14h-7.54zm0 3.22h7.54v2.09h-7.54zm7.59-7.52h-7.45v-2.11h7.45zm-5.24 12.97v2.7h2.68v-2.7zm18.68-5.19h-4.91v11.33h-2.82v-11.33h-4.91v-2.77h4.91v-7.75h2.82v7.75h4.91z"/></g></svg>