<svg viewBox="0 0 401.88 45" xmlns="http://www.w3.org/2000/svg"><path d="m22.5 43.5c-11.58 0-21-9.42-21-21s9.42-21 21-21h109.93c11.58 0 21 9.42 21 21s-9.42 21-21 21z" fill="#fff"/><g fill="#595a5a"><path d="m132.43 3c10.75 0 19.5 8.75 19.5 19.5s-8.75 19.5-19.5 19.5h-109.93c-10.75 0-19.5-8.75-19.5-19.5s8.75-19.5 19.5-19.5zm0-3h-109.93c-12.38 0-22.5 10.12-22.5 22.5s10.12 22.5 22.5 22.5h109.93c12.38 0 22.5-10.12 22.5-22.5s-10.13-22.5-22.5-22.5z"/><path d="m22.66 19.92h15.39c.49 0 1.53-.05 2.14-.14v3.05c-.59-.05-1.48-.07-2.14-.07h-5.66c-.14 2.42-.66 4.39-1.5 6.04-.82 1.64-2.63 3.45-4.72 4.51l-2.75-2c1.67-.63 3.31-1.97 4.25-3.36.96-1.46 1.36-3.22 1.46-5.19h-6.46c-.68 0-1.6.05-2.26.09v-3.08c.71.09 1.53.14 2.26.14zm2.99-5.97h7.68c.8 0 1.74-.07 2.54-.19v3.03c-.8-.05-1.72-.07-2.54-.07h-7.68c-.8 0-1.81.02-2.51.07v-3.03c.75.12 1.72.19 2.51.19zm13.48 1.41-1.88.82c-.49-.96-1.22-2.37-1.86-3.27l1.88-.78c.59.87 1.41 2.35 1.86 3.22zm2.82-1.08-1.88.82c-.49-.99-1.25-2.35-1.88-3.24l1.86-.78c.61.89 1.48 2.37 1.9 3.2z"/><path d="m50.3 12.94 3.31-.54c.07.47.14 1.27.26 1.83.05.33.19 1.1.38 2.16 2-.33 3.78-.61 4.63-.78.75-.14 1.64-.33 2.21-.49l.56 3.08c-.52.05-1.46.19-2.16.28-.96.16-2.75.45-4.7.75.23 1.17.47 2.47.73 3.76 2.11-.35 4.04-.68 5.1-.89.92-.19 1.79-.38 2.4-.56l.63 3.1c-.63.05-1.6.21-2.49.35-1.13.19-3.03.49-5.1.82.38 1.93.7 3.5.85 4.23.16.71.4 1.55.61 2.3l-3.38.61c-.12-.87-.19-1.69-.33-2.37-.12-.68-.42-2.3-.8-4.28-2.4.4-4.61.78-5.62.96-1.01.19-1.81.35-2.35.49l-.66-3.15c.63-.02 1.69-.16 2.44-.26 1.08-.14 3.27-.49 5.64-.87-.23-1.27-.49-2.58-.7-3.78-2.07.33-3.88.63-4.61.75-.75.16-1.36.28-2.16.49l-.63-3.24c.75-.02 1.46-.07 2.19-.17.82-.09 2.63-.35 4.65-.68-.19-.99-.35-1.76-.42-2.14-.14-.68-.31-1.22-.47-1.79z"/><path d="m75.49 18.37c.16.56.38 1.36.63 2.28 2.98-.56 6.27-1.2 7.19-1.41.42-.07.87-.21 1.2-.38l1.88 1.34c-.99 2.07-3.36 5.59-5.01 7.36l-2.58-1.29c1.2-1.08 2.84-3.08 3.48-4.23-.56.09-2.91.59-5.45 1.1.89 3.24 1.9 6.86 2.26 8.08.14.4.45 1.46.63 1.93l-3.2.8c-.07-.63-.24-1.41-.42-2.07-.35-1.27-1.32-4.93-2.16-8.13-1.97.42-3.69.78-4.39.94l-.73-2.82c.75-.07 1.39-.14 2.16-.28.33-.05 1.17-.19 2.26-.4-.23-.92-.45-1.67-.61-2.19-.16-.61-.4-1.17-.66-1.67l3.15-.75c.09.54.23 1.17.38 1.79z"/><path d="m100.94 26.22c4.02-2.37 7.07-5.97 8.55-9.14l1.83 3.31c-1.79 3.17-4.91 6.42-8.69 8.69-2.37 1.43-5.4 2.75-8.72 3.31l-1.97-3.1c3.67-.52 6.72-1.71 9-3.08zm0-7.59-2.4 2.44c-1.22-1.32-4.16-3.88-5.88-5.08l2.21-2.35c1.65 1.1 4.7 3.55 6.06 4.98z"/><path d="m124.63 15.29h4.77c.73 0 1.53-.09 2.04-.26l2.4 1.48c-.26.45-.56 1.08-.78 1.67-.63 1.9-1.81 4.42-3.48 6.77 1.01.73 1.93 1.41 2.61 1.97l-2.23 2.66c-.63-.59-1.5-1.32-2.47-2.09-2.07 2.18-4.75 4.18-8.41 5.57l-2.73-2.37c4.07-1.25 6.67-3.15 8.62-5.1-1.53-1.13-3.08-2.19-4.28-2.94l2.09-2.14c1.25.71 2.73 1.67 4.21 2.66 1.22-1.69 2.23-3.74 2.58-5.19h-6.72c-1.65 2.19-3.83 4.44-6.2 6.09l-2.54-1.95c4.11-2.56 6.3-5.78 7.47-7.83.38-.56.87-1.64 1.08-2.44l3.41 1.06c-.59.82-1.17 1.88-1.46 2.4z"/></g><path d="m269.45 43.5c-11.58 0-21-9.42-21-21s9.42-21 21-21h109.93c11.58 0 21 9.42 21 21s-9.42 21-21 21z" fill="#fff"/><path d="m379.38 3c10.75 0 19.5 8.75 19.5 19.5s-8.75 19.5-19.5 19.5h-109.93c-10.75 0-19.5-8.75-19.5-19.5s8.75-19.5 19.5-19.5zm0-3h-109.93c-12.38 0-22.5 10.12-22.5 22.5s10.12 22.5 22.5 22.5h109.93c12.38 0 22.5-10.12 22.5-22.5s-10.13-22.5-22.5-22.5z" fill="#595a5a"/><path d="m281.6 29.27c2.35.8 4.96 1.76 6.56 2.44l-2.4 1.86c-1.55-.78-4.18-1.88-6.72-2.77l1.6-1.53h-6.96l2.19 1.53c-1.86 1.1-4.77 2.23-7.1 2.8-.45-.56-1.29-1.39-1.88-1.93 2.28-.49 5.01-1.5 6.49-2.4h-6.39v-2.3h20.89v2.3h-6.27zm-5.69-13.65h-8.22v-2.33h8.22v-1.69h2.91v1.69h8.55v2.33h-8.55v.99h5.99v9.45h-14.4v-9.45h5.5zm6.06 2.63h-8.86v.99h8.86zm0 2.58h-8.86v.99h8.86zm0 2.54h-8.86v1.06h8.86z" fill="#595a5a"/><path d="m299.76 16.25c-.42 3.9-1.72 6.37-7.68 7.66-.24-.66-.94-1.79-1.5-2.35 5.12-.89 5.94-2.54 6.32-5.31h-3.24v2.73h-2.75v-5.26h8.51v-2.12h2.87v2.12h8.72v4.86h-2.89v-2.33h-3.31v3.71c0 .63.14.73.87.73h2.09c.59 0 .71-.24.8-1.72.52.4 1.67.8 2.4.96-.28 2.47-1.03 3.12-2.91 3.12h-2.8c-2.63 0-3.2-.75-3.2-3.08v-3.74h-2.28zm11.44 14.12v2.54h-20.56v-2.54h8.76v-3.5h-6.3v-2.51h16.1v2.51h-6.93v3.5z" fill="#595a5a"/><path d="m316.14 29.62-2.54-1.74c1.57-1.5 3.45-4.09 4.42-6.06l2.66 1.25c-1.08 2.09-3.24 5.17-4.54 6.56zm9.85-14.61v1.88h5.48c.66 0 1.69-.07 2.33-.16v3.08c-.75-.05-1.67-.07-2.3-.07h-5.5v10.93c0 1.36-.78 2.21-2.44 2.21-1.27 0-2.63-.07-3.83-.21l-.28-2.91c1.01.19 2.04.28 2.61.28.61 0 .85-.23.87-.85.02-.87.02-8.32.02-9.42v-.02h-5.97c-.71 0-1.62.02-2.28.09v-3.12c.7.09 1.53.19 2.28.19h5.97v-1.88c0-.61-.12-1.64-.21-2.04h3.48c-.05.33-.21 1.46-.21 2.04zm8.81 12.92-2.77 1.5c-1.01-2.02-2.68-4.86-3.81-6.3l2.56-1.39c1.2 1.5 3.08 4.46 4.02 6.18zm-2.63-16.78c1.5 0 2.7 1.22 2.7 2.73s-1.2 2.73-2.7 2.73-2.73-1.22-2.73-2.73 1.22-2.73 2.73-2.73zm0 4c.71 0 1.27-.56 1.27-1.27s-.56-1.27-1.27-1.27-1.29.56-1.29 1.27.59 1.27 1.29 1.27z" fill="#595a5a"/><path d="m347.89 26.22c4.02-2.37 7.07-5.97 8.55-9.14l1.83 3.31c-1.79 3.17-4.91 6.42-8.7 8.69-2.37 1.43-5.4 2.75-8.72 3.31l-1.97-3.1c3.67-.52 6.72-1.71 9-3.08zm0-7.59-2.4 2.44c-1.22-1.32-4.16-3.88-5.88-5.08l2.21-2.35c1.65 1.1 4.7 3.55 6.06 4.98z" fill="#595a5a"/><path d="m379.92 11.46c1.53 0 2.8 1.27 2.8 2.82s-1.27 2.8-2.8 2.8c-.09 0-.21 0-.31-.02-.07.26-.12.49-.19.71-.54 2.3-1.55 5.95-3.52 8.55-2.12 2.82-5.26 5.15-9.45 6.51l-2.56-2.82c4.65-1.08 7.31-3.12 9.21-5.52 1.55-1.95 2.44-4.61 2.75-6.63h-10.93c-1.08 0-2.21.05-2.8.09v-3.31c.68.09 2.02.19 2.8.19h10.88c.33 0 .85-.02 1.34-.09-.02-.14-.05-.28-.05-.45 0-1.55 1.27-2.82 2.82-2.82zm0 4.16c.73 0 1.34-.61 1.34-1.34s-.61-1.36-1.34-1.36-1.36.61-1.36 1.36.61 1.34 1.36 1.34z" fill="#595a5a"/></svg>